# xmcd
#
# Track frame offsets: 
#        150
#        9327
#        24416
#        43480
#        58961
#        70634
#        84863
#        99298
#        117188
#        132761
#        150752
#        160518
#        174381
#        187236
#
# Disc length: 2591 seconds
#
# Revision: 0
# Processed by: cddbd v1.5.2PL0 Copyright (c) Steve Scherf et al.
# Submitted via: ExactAudioCopyFreeDBPlugin 1.0
#
DISCID=a20a1d0e
DTITLE=Michael Jerome Browne - That's Where It's At!
DYEAR=2019
DGENRE=blues
TTITLE0=Don't Ask Me Why
TTITLE1=Black Nights
TTITLE2=Skeletons
TTITLE3=Pharaoh (With Harrison Kennedy)
TTITLE4=Everybody Ought To Treat A Stranger Right (With Eric Bibb)
TTITLE5=Love's A Funny Thing
TTITLE6=Remember When (With Roxanne Potvin)
TTITLE7=Here I Am (Come And Take Me)
TTITLE8=Louisiana 1927
TTITLE9=Somebody Have Mercy
TTITLE10=Curtis' Blues
TTITLE11=That's The Way Love Is (With Harrison Kennedy)
TTITLE12=Where Is The Song?
TTITLE13=Pharaoh (Reprise)
EXTD=
EXTT0=
EXTT1=
EXTT2=
EXTT3=
EXTT4=
EXTT5=
EXTT6=
EXTT7=
EXTT8=
EXTT9=
EXTT10=
EXTT11=
EXTT12=
EXTT13=
PLAYORDER=
